<svg width="132" height="66" viewBox="0 0 132 66" fill="none" xmlns="http://www.w3.org/2000/svg">
<rect x="0.5" y="0.5" width="131" height="65" stroke="#4CA9E3"/>
<path d="M115.7 31.9416C115.733 32.0154 115.733 32.0646 115.733 32.1385C115.733 32.0646 115.7 32.0154 115.7 31.9416ZM66 19.1662C38.2333 19.1662 16 25.32 16 33C16 40.6554 38.4333 46.8339 66 46.8339C93.5667 46.8339 116 40.6308 116 33C116 25.3692 93.5667 19.1662 66 19.1662Z" fill="#D3D2D2"/>
<path d="M16.7667 33C16.7667 40.3354 38.8 46.2923 66 46.2923C93.2 46.2923 115.233 40.36 115.233 33C115.233 25.6646 93.2 19.7077 66 19.7077C38.8 19.7077 16.7667 25.6646 16.7667 33Z" fill="url(#paint0_radial_1_3)"/>
<path d="M20.4667 33C20.4667 33.4923 20.6 33.9846 20.8667 34.4769C20.7667 34.1569 20.7 33.8369 20.7 33.5169C20.7 27.4369 41.0667 22.5138 66.2333 22.5138C89.3667 22.5138 108.467 26.6738 111.367 32.0892C109.433 26.4031 89.8667 21.9477 66 21.9477C40.8667 21.9231 20.4667 26.8954 20.4667 33Z" fill="url(#paint1_linear_1_3)"/>
<path d="M113.167 33C113.167 39.6954 92.0333 45.1354 66 45.1354C42.8 45.1354 23.5333 40.8277 19.5667 35.1661C22.6 41.0738 42.3667 45.6277 66.3333 45.6277C92.4 45.6277 113.5 40.2369 113.5 33.6154C113.5 32.9508 113.267 32.2861 112.867 31.6461C113.067 32.0646 113.167 32.5323 113.167 33Z" fill="url(#paint2_linear_1_3)"/>
<path d="M74.8 34.1815C73.7333 34.9938 73.6667 36.0523 74.3667 36.52C74.6 36.6923 74.9 36.7662 75.2 36.7908C74.7333 36.3723 74.5333 35.5354 75.1 34.8954C75 34.6985 74.9667 34.4769 75.0333 34.2554C75.0333 34.2062 75 34.1569 74.9333 34.1569C74.8667 34.1323 74.8333 34.1569 74.8 34.1815Z" fill="url(#paint3_linear_1_3)"/>
<path d="M85.7 35.9046C85.7 36.0277 85.7667 36.2492 85.8 36.4215C85.8667 36.3477 85.9 36.2738 85.9667 36.1754C86 36.1015 86 36.1015 85.9333 36.0769C85.8333 36.0523 85.7 35.9784 85.7 35.9292C85.6667 35.9292 85.6667 35.9292 85.7 35.9046Z" fill="url(#paint4_linear_1_3)"/>
<path d="M86.9667 33.2462C87.3333 33.4923 87.5333 33.7877 87.5667 34.0831C87.5667 34.2062 87.7333 34.2308 87.8333 34.1077C87.8667 34.0831 87.9 34.0338 87.9333 33.9846C87.9 33.96 87.8667 33.9354 87.8333 33.8862C87.7 33.7631 87.3333 33.4923 86.9667 33.2462Z" fill="url(#paint5_linear_1_3)"/>
<path d="M72.3333 32.7538C72.6 33.0492 72.7333 33.4431 72.7333 33.96C72.7333 34.0831 72.8666 34.0831 72.9333 33.9846C72.9666 33.9354 73.0333 33.8862 73.0666 33.8369C72.9 33.3692 72.5666 32.9262 72.3333 32.7538Z" fill="url(#paint6_linear_1_3)"/>
<path d="M82.1 35.4615C81.1 36.3477 80.5667 37.2585 80.5667 38.1446C80.5667 38.4646 80.7333 38.8585 81.1 38.9815C81.2333 39.0308 81.3333 39.0554 81.4666 39.08C81.4333 38.9569 81.4 38.8338 81.4 38.7354C81.4 37.8246 81.7667 36.9138 82.7667 36.0031C83.9667 34.92 85.2333 34.3785 86.1 34.6738C86.0667 34.4277 85.9 34.2308 85.5333 34.1077C85.3667 34.0585 85.2 34.0338 85 34.0338C84.1333 34.0338 83.0667 34.5754 82.1 35.4615Z" fill="url(#paint7_linear_1_3)"/>
<path d="M62.3 33.5661C60.9667 33.9354 59.6334 34.5261 58.7 35.4369C57.6334 36.4708 57.3667 37.7261 58.0667 38.4646C58.2334 38.6369 58.4334 38.76 58.6667 38.8338C58.3 37.9723 58.5667 36.8154 59.4667 35.9292C60.4 35.0185 61.4334 34.6738 62.6 34.28C62.7667 34.2308 62.7667 34.1569 62.7334 34.0585C62.6667 33.8861 62.5334 33.4431 62.4667 33.3446C62.5 33.4677 62.4667 33.5415 62.3 33.5661Z" fill="url(#paint8_linear_1_3)"/>
<path d="M72.3 36.3477C71.0666 37.7508 69.9 39.1046 68.6666 40.5323C68.6 40.6062 68.5333 40.6308 68.4333 40.6554H66C65.9 40.6554 65.8666 40.6308 65.8333 40.5815C65.9 40.8031 66 41.1969 66.0333 41.2954C66.0666 41.3692 66.1333 41.3938 66.2 41.3938H68.9666C69.0666 41.3938 69.1666 41.3446 69.2 41.2708C70.3333 39.9662 71.5333 38.5631 72.6666 37.2585C72.9333 37.9231 73.0333 38.2185 73.5333 38.5385C74 38.8585 74.4333 38.9323 75.1 38.9323C75.7 38.9323 76.2666 38.76 76.9666 38.5385C77.2333 38.4646 77.4333 38.3662 77.6333 38.2677C77.6333 38.0215 77.6666 37.7754 77.7333 37.5538C77.7333 37.5292 77.7 37.3815 77.5333 37.4554C77.2 37.6277 76.8 37.8 76.2666 37.9477C75.6333 38.12 75.3333 38.1938 74.7333 38.1938C74 38.1938 73.3333 37.9477 72.8666 37.4062C72.6 37.1108 72.5 36.6677 72.4666 36.3477C72.4666 36.3231 72.4333 36.2985 72.4 36.2985C72.3666 36.3231 72.3333 36.3231 72.3 36.3477Z" fill="url(#paint9_linear_1_3)"/>
<path d="M93.7667 37.0861C92.5667 38.1692 91.2667 39.1785 90 39.8923C88.0333 41.0246 86.1 41.2954 85.1333 40.5815C84.7667 40.3108 84.5667 39.9415 84.5667 39.5969C84.5667 39.4246 84.4333 39.4246 84.3333 39.4985C83.1667 40.3354 81.1667 41.2708 79.3333 40.6061C78.4333 40.2615 77.9333 39.6461 77.7333 38.9569C77.8333 39.4492 78 40.1631 78.3 40.6061C78.5 40.9015 78.9667 41.2461 79.2667 41.3446C80.9 41.9354 83.2 41.2708 84.7 40.2123C84.7 40.1877 84.7333 40.1877 84.7333 40.1877C84.8 40.3846 84.9 40.6061 84.9 40.6308C85 40.8769 85.1667 41.0985 85.3 41.2215C86.3333 42.0831 88.4667 41.6892 90.7333 40.4092C92 39.6954 92.9333 38.9815 94.0667 37.9969C94.1 37.9477 94.1 37.8985 94.1 37.8C94.0333 37.5785 93.9333 37.2092 93.8667 37.0123C93.8 37.0123 93.8 37.0615 93.7667 37.0861ZM77.7 38.9077C77.7 38.9077 77.7 38.9323 77.7 38.9077V38.9077Z" fill="url(#paint10_linear_1_3)"/>
<path d="M78.2667 34.1077C78.1667 34.6492 77.7667 35.1169 77.1 35.3631C76.5333 35.56 75.8667 35.5354 75.4 35.2154C75.2667 35.1169 75.1667 34.9938 75.0667 34.8708C75.2 35.2646 75.3 35.56 75.4333 35.7323C75.8667 36.2246 76.6333 36.3477 77.4666 36.0031C78.0666 35.7569 78.6 35.24 78.5333 34.4277C78.5 34.0092 78.3333 33.5908 78.0667 33.2462C78.2667 33.5169 78.3333 33.8123 78.2667 34.1077Z" fill="url(#paint11_linear_1_3)"/>
<path d="M95.3667 29.0369C95 29.5292 87.6667 37.7508 87.2 38.6123C87.0667 38.8831 87.0333 39.08 87.2 39.2277C87.3667 39.3754 87.5667 39.4246 87.8333 39.4246C87.8667 39.3262 87.9 39.2031 87.9667 39.08C88.4333 38.2185 95.3 30.5385 95.6667 30.0462C95.7 29.9969 95.7 29.9477 95.6667 29.9231C95.6333 29.8492 95.4 29.0369 95.4 28.9631C95.4 28.9877 95.4 29.0123 95.3667 29.0369Z" fill="url(#paint12_linear_1_3)"/>
<path d="M64.9667 32.8769L65.0333 32.9262C65.4667 33.4185 65.7 34.0831 65.7333 34.7969C65.7667 34.9446 65.8333 34.9446 65.9333 34.8708C66.0333 34.7969 66.1 34.7231 66.2 34.6738C66.0667 34.3046 65.8667 33.96 65.6667 33.64C65.6 33.4923 65.2667 33.0738 64.9667 32.8769Z" fill="url(#paint13_linear_1_3)"/>
<path d="M68.7 34.5015C67.1333 35.3877 65.8 36.7662 65.1333 37.3815C64.7333 37.7508 64.3667 38.2677 63.3333 39.1046C61.7 40.4092 59.5333 41.1723 57.4667 40.6308C56.3333 40.36 55.5 39.6708 55.2 38.8339C55.1333 38.6615 55 38.6369 54.9 38.7354C54.5667 39.0554 53.8667 39.4985 53.3 39.7939C53.2333 39.8185 53.0667 39.8923 52.9333 39.8431C52.8 39.7938 52.4 39.3508 52.3 39.2277C52.3 39.2031 52.2667 39.2031 52.2667 39.1785C52.4 39.72 52.4333 39.7939 52.6333 40.04C52.8667 40.3108 53.1 40.5077 53.1333 40.5323C53.2667 40.5815 53.4 40.5323 53.4667 40.5077C53.9 40.3354 54.7667 39.8431 55.1667 39.4985C55.2667 39.4246 55.4 39.4739 55.4333 39.5477C55.6 39.9169 55.8333 40.1877 56.0667 40.5077C56.3333 40.8523 56.9 41.1969 57.6333 41.3446C58.5667 41.5415 59.6 41.5662 60.9333 41.1969C62 40.9015 63.1333 40.2862 64 39.5723C65.0333 38.7354 65.4 38.2185 65.8 37.8492C66.4667 37.2339 67.5333 36.1508 69 35.2154C69.5 34.8954 70.0667 34.6739 70.4333 34.7723C70.6333 34.3785 70.5333 34.1569 70.3333 34.0339C70.2667 34.0092 70.1667 33.9846 70.0667 33.9846C69.6667 34.0338 69.1667 34.2554 68.7 34.5015Z" fill="url(#paint14_linear_1_3)"/>
<path d="M42.4333 33.3938C41.5333 33.7384 40.4667 34.3046 39.9333 35.0923C39.5 35.7323 39.4333 36.4954 40.0667 37.2338C40.1333 37.2831 40.1667 37.3569 40.2333 37.4061C40.0333 36.7908 40.2667 36.1508 40.5667 35.6584C41.1 34.8708 41.8333 34.5015 42.5667 34.1569C42.8667 34.0092 43.0333 33.8615 42.8333 33.4923C42.7667 33.3938 42.7333 33.1969 42.7 33.0246C42.7333 33.1723 42.6333 33.32 42.4333 33.3938Z" fill="url(#paint15_linear_1_3)"/>
<path d="M49.1333 25.5415C46.5667 26.2554 45.4333 27.7569 45.9667 28.7662C46.0667 28.9631 46.2333 29.1108 46.4667 29.2092C46.3 28.2738 47.2333 26.7723 49.7 26.1569C52.9333 25.3692 56.5333 25.8615 59.4333 26.3292C59.8333 26.1323 60.2 26.0092 60.5333 25.8615C60.7 25.7877 60.5 25.7138 60.4667 25.7138C58.1667 25.3938 55.7667 25 53.4333 25C51.9667 25 50.5333 25.1477 49.1333 25.5415Z" fill="url(#paint16_linear_1_3)"/>
<path d="M59.9 31.1785C58.7333 31.2277 56.9333 31.3508 55.7 31.4738C55.4 31.4985 55.3667 31.5477 55.3 31.6215C53.3333 34.0092 51.2667 36.5692 48.9667 38.2923C46.5 40.1385 44.4667 40.6308 42.3 40.6308C39.8 40.6554 37.5667 39.5969 37 37.7508C37.3 38.7846 38.2 40.0154 39.2333 40.5569C40.3 41.0985 41.3333 41.2954 42.5333 41.2954C45 41.32 47.2667 40.5815 49.6667 38.7846C51.9667 37.0615 53.9667 34.6492 55.9 32.2615C55.9667 32.1877 56.0333 32.1385 56.3667 32.1138C57.6 31.9908 58.7 31.9415 59.8 31.8677C60.1333 31.8431 60.3667 31.8185 60.5 31.9169C60.9 32.2123 61.3333 32.4831 61.6667 32.6061C61.8667 32.6061 62.0333 32.6308 62.1667 32.7292C62.3 32.7046 62.4 32.6554 62.5 32.6061C62.6333 32.5077 62.6333 32.3846 62.6333 32.2861C62.6 32.0892 62.5 31.6954 62.4333 31.5969C62.5 31.6708 62.4667 31.7938 62.3333 31.8923C62.2333 31.9661 62.1 32.04 61.9333 32.04C61.8 32.04 61.7 31.9908 61.5333 31.9415C61.1667 31.7938 60.7 31.5477 60.4 31.2769C60.3333 31.2031 60.2667 31.1785 60.1333 31.1785C60 31.1538 59.9667 31.1785 59.9 31.1785Z" fill="url(#paint17_linear_1_3)"/>
<path d="M49.3 32.6061C49.0333 32.7538 48.6333 32.7292 48.4667 32.5323C48.4 32.4585 48.3667 32.3846 48.3667 32.3354C48.3333 32.6554 48.5 33.0985 48.6333 33.2461C48.7667 33.4185 49.2 33.4923 49.5333 33.32C50.2667 32.9015 50.9667 32.68 51.7 32.5569C51.9 32.36 52.1 32.1385 52.3333 31.8923C52.3667 31.8677 52.3667 31.8431 52.3333 31.8431C52.3333 31.8185 52.3 31.8185 52.2333 31.8185C51.2 31.8431 50.2333 32.0892 49.3 32.6061Z" fill="url(#paint18_linear_1_3)"/>
<path d="M80.5 25.0246C80.5 25.0489 80.5342 25.0489 80.5342 25.0731C80.5342 25.0489 80.5342 25.0246 80.5 25.0246Z" fill="url(#paint19_linear_1_3)"/>
<path d="M80.6334 25.3692C80.6 25.8862 80.0334 26.4031 78.6667 26.9446C77.1 27.5846 75.5 27.7569 73.8 27.7815C69.7 27.8062 65.8667 26.6246 61.9334 25.9846C61.9334 26.1077 61.9667 26.2554 61.8334 26.3539C59.6334 27.56 57.6667 28.7662 56.3334 30.4646C56.3 30.5139 56.3 30.5385 56.4 30.5385C56.7667 30.5139 57.1 30.5139 57.4334 30.4892C58.6334 29.0862 59.9334 28.2985 61.9 27.2154C62.0334 27.1415 62.2 27.0677 62.1333 26.7723C66.1 27.4123 69.1 28.4954 74.2334 28.52C75.7667 28.52 77.9 28.1508 79.0667 27.6339C80.4 27.0431 80.7667 26.6 80.8 26.1569C80.8 26.0092 80.7667 25.7877 80.7334 25.6892C80.7 25.5415 80.6667 25.3446 80.6 25.1969C80.6334 25.2215 80.6334 25.2954 80.6334 25.3692Z" fill="url(#paint20_linear_1_3)"/>
<path d="M61.5333 28.9385C61.5 28.9631 61.4333 29.0123 61.3667 29.0369C60.9667 29.3323 60.8667 29.7262 60.9 30.0216C60.9333 30.1446 61 30.1692 61.0667 30.1446C61.1333 30.1446 61.2333 30.12 61.3 30.0954C61.3333 29.9231 61.4333 29.7754 61.6333 29.6277C61.8 29.5292 62 29.48 62.1667 29.5046C62.3333 29.2831 62.3667 29.0123 62.1667 28.8892C62.1 28.84 62 28.8154 61.8667 28.8154C61.8 28.84 61.6667 28.8646 61.5333 28.9385Z" fill="url(#paint21_linear_1_3)"/>
<path d="M63.1 29.9723C62.7333 30.5139 62.1 30.7846 61.5 30.9323C61.5 30.9323 61.3667 30.9569 61.4 31.0308C61.4 31.1292 61.8333 31.3262 62.1 31.4492C62.1333 31.4492 62.2 31.4246 62.2 31.4246C62.5 31.3262 63 31.1046 63.3 30.6369C63.5 30.3416 63.6 30.0954 63.5 29.5539C63.4333 29.1846 63.3333 28.84 63.2 28.6923C63.5 29.0862 63.4 29.5785 63.1 29.9723Z" fill="url(#paint22_linear_1_3)"/>
<path d="M52.1667 27.4861C52.2333 27.6092 52.2333 27.8308 52.1 28.0769C51 29.9723 48.9333 31.4492 46.4 31.5231C44.8667 31.5477 43.7333 30.9815 43.2 30.1446C43.6 30.7846 44.4 31.3508 45.1 31.6708C45.6333 31.9169 46.3333 32.0646 47.1 32.04C49.7333 31.9661 51.7333 30.3661 52.4 29.0123C52.5667 28.6431 52.4333 28.2492 52.3667 28.0031C52.3 27.88 52.2667 27.6585 52.1667 27.4861Z" fill="url(#paint23_linear_1_3)"/>
<path d="M115.7 31.9416C115.733 32.0154 115.733 32.0646 115.733 32.1385C115.733 32.0646 115.7 32.0154 115.7 31.9416ZM16.3333 33.1723C16.3333 31.5477 17.3 29.9477 19.3333 28.4216C26.5 23.08 45.2333 19.4862 65.9 19.4123C93.3 19.3385 115.6 25.3692 115.667 32.8523C115.667 34.4769 114.667 36.0523 112.633 37.5785C105.467 42.92 86.7667 46.5385 66.1 46.5877C38.7 46.6862 16.4 40.6554 16.3333 33.1723ZM66 19.1662C38.2333 19.1662 16 25.32 16 33C16 40.6554 38.4333 46.8339 66 46.8339C93.5667 46.8339 116 40.6308 116 33C116 25.3692 93.5667 19.1662 66 19.1662Z" fill="#4F4C4D"/>
<path d="M16.1667 33C16.1667 33.3692 16.2334 33.7138 16.3334 34.0831C16.2667 33.7877 16.2 33.4677 16.2 33.1723C16.2 31.5231 17.2 29.8738 19.2334 28.3477C26.4334 22.9815 45.2 19.3631 65.9 19.3138C68.7667 19.3138 71.6 19.3631 74.3334 19.4861C71.6334 19.3631 68.8334 19.2892 66 19.2892C38.3667 19.2892 16.1667 25.3938 16.1667 33Z" fill="url(#paint24_linear_1_3)"/>
<path d="M115.8 32.8523C115.8 34.5015 114.767 36.1262 112.7 37.6523C105.533 42.9938 86.7667 46.6369 66.0667 46.7108C63.1333 46.7108 60.2667 46.6615 57.4667 46.5385C60.2333 46.6615 63.0667 46.7354 65.9667 46.7354C93.4667 46.7354 115.8 40.5323 115.8 33C115.8 32.7046 115.767 32.4338 115.7 32.1385C115.8 32.3846 115.8 32.6308 115.8 32.8523Z" fill="url(#paint25_linear_1_3)"/>
<path d="M18.8 33C18.8 39.6954 39.9333 45.1354 65.9667 45.1354C92.0333 45.1354 113.133 39.6954 113.133 33C113.167 26.3046 92.0667 20.8892 66 20.8892C39.9333 20.8892 18.8 26.3046 18.8 33ZM20.4667 33C20.4667 26.8708 40.8333 21.9231 66 21.9231C91.1333 21.9231 111.533 26.8708 111.533 33C111.533 39.1292 91.1667 44.0769 66 44.0769C40.8667 44.0769 20.4667 39.1292 20.4667 33Z" fill="url(#paint26_linear_1_3)"/>
<path d="M92.7 28.8892C92.5 28.8892 92.4333 28.9138 92.3333 29.0369C92.0333 29.4554 88.5 33.3446 87.8667 34.1077C87.7667 34.2308 87.6333 34.2061 87.6 34.0831C87.5333 33.64 87 33.1231 86.1667 32.8769C85.5333 32.68 84.9 32.6554 84.2667 32.7046C83.1 32.8277 82.0667 33.2708 81.1667 33.7877C79.8 34.5508 78.6 35.56 77.1 36.2985C76.2667 36.6923 75.1333 37.0615 74.3667 36.52C73.6667 36.0523 73.7667 34.9938 74.8 34.1815C74.9 34.1077 75.0333 34.1569 75.0333 34.2554C74.9333 34.6246 75.0667 34.9938 75.4333 35.24C75.9 35.5354 76.5667 35.5846 77.1333 35.3877C77.8 35.1415 78.2 34.6738 78.3 34.1323C78.4667 33.2954 77.6 32.5815 76.5333 32.5077C75.6667 32.4585 74.8 32.68 74 33.1969C73.6 33.4431 73.3667 33.64 73 34.0092C72.9 34.1077 72.7667 34.1077 72.8 33.9846C72.8333 32.9261 72.2333 32.3354 71.0667 32.3108C70.1333 32.2861 69.1667 32.6554 68.4 33.1231C67.5667 33.6154 66.8333 34.28 66.0333 34.8954C65.9333 34.9692 65.8333 34.9692 65.8333 34.8215C65.8 34.1077 65.5667 33.4431 65.1333 32.9508C64.9667 32.7785 64.6333 32.7046 64.3667 32.8031C64.2333 32.8523 63.8 33 63.4667 33.1969C63.3 33.2954 63.2333 33.4431 63.3 33.6154C63.7333 34.6738 63.6333 35.8554 63.0667 36.8646C62.5333 37.8 61.5 38.6123 60.3 38.9077C59.5 39.1046 58.6667 39.0061 58.1667 38.4892C57.4667 37.7754 57.7333 36.52 58.8 35.4615C59.7333 34.5508 61.0667 33.96 62.4 33.5908C62.5667 33.5415 62.6 33.4677 62.5333 33.3692C62.4667 33.1969 62.3333 32.9754 62.3 32.8769C62.1667 32.6308 61.8333 32.6061 61.4 32.6308C60.4333 32.7046 59.5667 32.9508 58.6667 33.2954C56.4 34.1815 55.2667 35.9292 54.7667 36.8646C54.5333 37.3077 54.3333 37.5785 54.0667 37.8246C53.7 38.1692 53.2667 38.4646 52.4333 38.9815C52.3667 39.0308 52.3 39.1292 52.3667 39.2277C52.4667 39.3508 52.8667 39.7938 53 39.8431C53.1333 39.8923 53.3 39.8185 53.3667 39.7938C53.9333 39.4985 54.6333 39.0554 54.9667 38.7354C55.0667 38.6369 55.2 38.6861 55.2667 38.8338C55.5667 39.6708 56.4 40.3354 57.5333 40.6308C59.6 41.1477 61.7667 40.4092 63.4 39.1046C64.4333 38.2677 64.8 37.7508 65.2 37.3815C65.8667 36.7661 67.2 35.3877 68.7667 34.5015C69.3333 34.1815 70.0333 33.9354 70.3667 34.0831C70.6333 34.2061 70.7333 34.5261 70.3 35.1169C68.7 37.2831 66.3333 39.8431 65.9 40.4585C65.8333 40.5569 65.9 40.6554 66.0333 40.6554H68.4667C68.6 40.6554 68.6667 40.6061 68.7 40.5323C69.9333 39.1046 71.1 37.7508 72.3333 36.3477C72.4 36.2738 72.4667 36.3231 72.4667 36.3723C72.5 36.6923 72.6 37.1354 72.8667 37.4308C73.3333 37.9723 74 38.1938 74.7333 38.2185C75.3333 38.2185 75.6333 38.1692 76.2667 37.9723C76.8 37.8246 77.2 37.6523 77.5333 37.48C77.7333 37.3815 77.7667 37.5538 77.7333 37.5785C77.4333 38.7108 77.8 40.0646 79.3333 40.6061C81.1667 41.2708 83.1667 40.3354 84.3333 39.4985C84.4333 39.4246 84.5667 39.4246 84.5667 39.5969C84.6 39.9169 84.8 40.3108 85.1333 40.5815C86.1 41.2954 88.0667 41.0246 90 39.8923C91.2667 39.1785 92.5667 38.1692 93.7667 37.0861C93.8 37.0369 93.8333 36.9877 93.7667 36.9138C93.6 36.7661 93.3333 36.6185 93.1333 36.4954C93.0667 36.4461 92.9333 36.4708 92.8667 36.4954C91.6333 37.3569 90.5667 38.3169 88.9667 39.1292C88.4333 39.4 87.5667 39.6215 87.2 39.2523C87.0667 39.1046 87.0667 38.9077 87.2 38.6369C87.6667 37.7754 95 29.5538 95.3667 29.0615C95.4333 28.9877 95.3667 28.9138 95.2333 28.9138C94.4667 28.8892 93.4667 28.8892 92.7 28.8892ZM81.1 39.0061C80.7333 38.8585 80.5667 38.4646 80.5667 38.1692C80.6 37.2831 81.1333 36.3723 82.1 35.4861C83.3 34.4031 84.6333 33.8369 85.5 34.1323C86.4 34.4523 86.1 35.2154 85.7 35.8308C85.6667 35.88 85.6667 35.9292 85.7 35.9538C85.7 36.0277 85.8333 36.0769 85.9333 36.1015C85.9667 36.1015 86 36.1261 85.9667 36.2C85.6667 36.6923 85.3667 36.9877 84.9667 37.4061C84.6 37.8 84.2 38.12 83.7 38.4154C83.1333 38.76 82.4 39.1292 81.7 39.1292C81.5 39.1292 81.2667 39.08 81.1 39.0061Z" fill="url(#paint27_linear_1_3)"/>
<path d="M53.7667 23.8923C53.0667 23.8923 52.3667 23.9169 51.6667 23.9661C47.1667 24.2369 42.9 26.1077 42.8667 28.9631C42.8667 30.4154 44.2667 31.5723 46.4 31.5231C48.9333 31.4492 51 29.9723 52.1 28.0769C52.5 27.3631 51.7333 27.0677 51.4 27.4861C50.7667 28.2246 49.8333 28.7908 48.8667 29.16C47.6667 29.5785 46.4 29.48 46.0333 28.7661C45.5 27.7569 46.6333 26.2554 49.2 25.5415C52.9 24.5323 56.8 25.1969 60.5333 25.7138C60.6 25.7138 60.8 25.7877 60.6 25.8615C59.9333 26.1323 59.2667 26.3538 58.2333 26.9938C57.5 27.4615 56.5333 28.0769 55.8 28.7415C55.0667 29.4061 54.5333 29.9969 53.8333 30.6615C53.7333 30.76 53.6333 30.76 53.6333 30.76C51.9333 30.9815 50.3 31.1046 48.7667 31.8923C48.4667 32.04 48.3333 32.3354 48.5 32.5569C48.6667 32.7538 49.0667 32.7785 49.3333 32.6308C50.2667 32.1138 51.2333 31.8677 52.3667 31.8431C52.4 31.8431 52.4333 31.8431 52.4667 31.8677V31.9169C50.8 33.6154 50.4 34.0092 49.1333 35.0677C48.5 35.6092 47.8667 36.0769 47.1667 36.5446C44.3333 38.4892 41.2667 38.4646 40.1667 37.2338C39.5 36.4954 39.6 35.7323 40.0333 35.0923C40.5667 34.3046 41.6333 33.7385 42.5333 33.3938C42.8667 33.2708 42.9667 32.9508 42.6333 32.68C42.4333 32.4831 41.9 32.4585 41.5333 32.5077C40.3667 32.6554 39 33.32 38.1667 34.1077C37.2667 34.9938 36.8 36.0523 36.9333 37.2338C37.2 39.4 39.6 40.6308 42.3333 40.6308C44.5 40.6061 46.5667 40.1385 49 38.2923C51.3 36.5692 53.4 34.0092 55.3333 31.6215C55.4 31.5477 55.4333 31.4985 55.7333 31.4738C56.9667 31.3508 58.7667 31.2277 59.9333 31.1785C60.2 31.1785 60.2334 31.1785 60.3333 31.2769C60.6334 31.5477 61.1 31.7938 61.4667 31.9415C61.6333 32.0154 61.7334 32.04 61.8667 32.04C62.0334 32.04 62.1667 31.9661 62.2667 31.8923C62.4 31.7938 62.4334 31.6708 62.3667 31.5723C62.3 31.4738 61.5 31.1538 61.4667 31.0308C61.4333 30.9569 61.5667 30.9323 61.5667 30.9323C62.1667 30.7846 62.7667 30.5138 63.1667 29.9723C63.5333 29.4554 63.6 28.7415 62.9334 28.3723C62.3334 28.0277 61.4333 28.0769 60.7333 28.5692C60.0333 29.0369 59.8 29.7015 59.9 30.2923C59.9 30.3908 59.9 30.44 59.7333 30.44C58.6667 30.5138 57.6333 30.5138 56.4667 30.5631C56.4 30.5631 56.3667 30.5385 56.4 30.4892C57.7333 28.7908 59.7 27.5846 61.9 26.3785C62.0333 26.3046 62 26.1569 62 26.0092C65.9667 26.6492 69.7667 27.8308 73.8667 27.8061C75.5667 27.8061 77.2 27.6092 78.7333 26.9692C80.1 26.4277 80.6667 25.9108 80.7 25.3938C80.7334 25.0246 80.4 24.8031 79.9 24.8769C75.7667 25.5908 71.8 25.5661 67.6667 25.1969C62.9333 24.7538 58.4333 23.8923 53.7667 23.8923ZM60.9 30.0215C60.8333 29.7015 60.9667 29.2585 61.4667 28.9631C61.7 28.8154 62.0334 28.7661 62.2 28.8892C62.4334 29.0369 62.3 29.3815 62.1 29.6031C61.8667 29.8738 61.4333 30.0954 61.0667 30.1446H61.0334C61 30.1692 60.9333 30.1446 60.9 30.0215Z" fill="url(#paint28_linear_1_3)"/>
<defs>
<radialGradient id="paint0_radial_1_3" cx="0" cy="0" r="1" gradientUnits="userSpaceOnUse" gradientTransform="translate(65.5667 171.931) scale(215.885 155.454)">
<stop stop-color="#00050D"/>
<stop offset="0.7" stop-color="#051125"/>
<stop offset="0.904" stop-color="#173E7E"/>
<stop offset="0.955" stop-color="#4CA9E3"/>
<stop offset="1" stop-color="#4CA9E3"/>
</radialGradient>
<linearGradient id="paint1_linear_1_3" x1="65.9136" y1="47.1553" x2="65.9136" y2="19.0149" gradientUnits="userSpaceOnUse">
<stop stop-color="#08142E"/>
<stop offset="0.809" stop-color="#17326E"/>
<stop offset="1" stop-color="#0D69A9"/>
</linearGradient>
<linearGradient id="paint2_linear_1_3" x1="66.5154" y1="47.1697" x2="66.5154" y2="19.0267" gradientUnits="userSpaceOnUse">
<stop stop-color="#08142E"/>
<stop offset="0.809" stop-color="#17326E"/>
<stop offset="1" stop-color="#0D69A9"/>
</linearGradient>
<linearGradient id="paint3_linear_1_3" x1="74.5351" y1="42.3214" x2="74.5351" y2="22.8235" gradientUnits="userSpaceOnUse">
<stop stop-color="#08142E"/>
<stop offset="0.809" stop-color="#17326E"/>
<stop offset="1" stop-color="#0D69A9"/>
</linearGradient>
<linearGradient id="paint4_linear_1_3" x1="85.8167" y1="42.4011" x2="85.8167" y2="22.6434" gradientUnits="userSpaceOnUse">
<stop stop-color="#08142E"/>
<stop offset="0.809" stop-color="#17326E"/>
<stop offset="1" stop-color="#0D69A9"/>
</linearGradient>
<linearGradient id="paint5_linear_1_3" x1="28813.6" y1="41.6272" x2="28813.6" y2="23.5281" gradientUnits="userSpaceOnUse">
<stop stop-color="#08142E"/>
<stop offset="0.809" stop-color="#17326E"/>
<stop offset="1" stop-color="#0D69A9"/>
</linearGradient>
<linearGradient id="paint6_linear_1_3" x1="72.7192" y1="41.8899" x2="72.7192" y2="23.1813" gradientUnits="userSpaceOnUse">
<stop stop-color="#08142E"/>
<stop offset="0.809" stop-color="#17326E"/>
<stop offset="1" stop-color="#0D69A9"/>
</linearGradient>
<linearGradient id="paint7_linear_1_3" x1="83.3073" y1="42.3983" x2="83.3073" y2="22.6724" gradientUnits="userSpaceOnUse">
<stop stop-color="#08142E"/>
<stop offset="0.809" stop-color="#17326E"/>
<stop offset="1" stop-color="#0D69A9"/>
</linearGradient>
<linearGradient id="paint8_linear_1_3" x1="60.1984" y1="42.3796" x2="60.1984" y2="22.6579" gradientUnits="userSpaceOnUse">
<stop stop-color="#08142E"/>
<stop offset="0.809" stop-color="#17326E"/>
<stop offset="1" stop-color="#0D69A9"/>
</linearGradient>
<linearGradient id="paint9_linear_1_3" x1="31203.3" y1="42.3766" x2="31203.3" y2="22.7897" gradientUnits="userSpaceOnUse">
<stop stop-color="#08142E"/>
<stop offset="0.809" stop-color="#17326E"/>
<stop offset="1" stop-color="#0D69A9"/>
</linearGradient>
<linearGradient id="paint10_linear_1_3" x1="85.874" y1="42.3999" x2="85.874" y2="22.6695" gradientUnits="userSpaceOnUse">
<stop stop-color="#08142E"/>
<stop offset="0.809" stop-color="#17326E"/>
<stop offset="1" stop-color="#0D69A9"/>
</linearGradient>
<linearGradient id="paint11_linear_1_3" x1="76.8243" y1="42.4053" x2="76.8243" y2="22.6623" gradientUnits="userSpaceOnUse">
<stop stop-color="#08142E"/>
<stop offset="0.809" stop-color="#17326E"/>
<stop offset="1" stop-color="#0D69A9"/>
</linearGradient>
<linearGradient id="paint12_linear_1_3" x1="91.4046" y1="42.3818" x2="91.4046" y2="22.6563" gradientUnits="userSpaceOnUse">
<stop stop-color="#08142E"/>
<stop offset="0.809" stop-color="#17326E"/>
<stop offset="1" stop-color="#0D69A9"/>
</linearGradient>
<linearGradient id="paint13_linear_1_3" x1="65.574" y1="42.181" x2="65.574" y2="22.9106" gradientUnits="userSpaceOnUse">
<stop stop-color="#08142E"/>
<stop offset="0.809" stop-color="#17326E"/>
<stop offset="1" stop-color="#0D69A9"/>
</linearGradient>
<linearGradient id="paint14_linear_1_3" x1="61.4259" y1="42.3913" x2="61.4259" y2="22.7984" gradientUnits="userSpaceOnUse">
<stop stop-color="#08142E"/>
<stop offset="0.809" stop-color="#17326E"/>
<stop offset="1" stop-color="#0D69A9"/>
</linearGradient>
<linearGradient id="paint15_linear_1_3" x1="41.2794" y1="42.3768" x2="41.2794" y2="22.6521" gradientUnits="userSpaceOnUse">
<stop stop-color="#08142E"/>
<stop offset="0.809" stop-color="#17326E"/>
<stop offset="1" stop-color="#0D69A9"/>
</linearGradient>
<linearGradient id="paint16_linear_1_3" x1="53.2213" y1="42.4001" x2="53.2213" y2="22.6796" gradientUnits="userSpaceOnUse">
<stop stop-color="#08142E"/>
<stop offset="0.809" stop-color="#17326E"/>
<stop offset="1" stop-color="#0D69A9"/>
</linearGradient>
<linearGradient id="paint17_linear_1_3" x1="49.7579" y1="42.3857" x2="49.7579" y2="22.6603" gradientUnits="userSpaceOnUse">
<stop stop-color="#08142E"/>
<stop offset="0.809" stop-color="#17326E"/>
<stop offset="1" stop-color="#0D69A9"/>
</linearGradient>
<linearGradient id="paint18_linear_1_3" x1="50.3868" y1="42.3979" x2="50.3868" y2="22.6626" gradientUnits="userSpaceOnUse">
<stop stop-color="#08142E"/>
<stop offset="0.809" stop-color="#17326E"/>
<stop offset="1" stop-color="#0D69A9"/>
</linearGradient>
<linearGradient id="paint19_linear_1_3" x1="80.5168" y1="41.7675" x2="80.5168" y2="22.7631" gradientUnits="userSpaceOnUse">
<stop stop-color="#08142E"/>
<stop offset="0.809" stop-color="#17326E"/>
<stop offset="1" stop-color="#0D69A9"/>
</linearGradient>
<linearGradient id="paint20_linear_1_3" x1="68.5685" y1="42.389" x2="68.5685" y2="22.6658" gradientUnits="userSpaceOnUse">
<stop stop-color="#08142E"/>
<stop offset="0.809" stop-color="#17326E"/>
<stop offset="1" stop-color="#0D69A9"/>
</linearGradient>
<linearGradient id="paint21_linear_1_3" x1="61.637" y1="41.7215" x2="61.637" y2="23.0875" gradientUnits="userSpaceOnUse">
<stop stop-color="#08142E"/>
<stop offset="0.809" stop-color="#17326E"/>
<stop offset="1" stop-color="#0D69A9"/>
</linearGradient>
<linearGradient id="paint22_linear_1_3" x1="62.4897" y1="42.3896" x2="62.4897" y2="22.6643" gradientUnits="userSpaceOnUse">
<stop stop-color="#08142E"/>
<stop offset="0.809" stop-color="#17326E"/>
<stop offset="1" stop-color="#0D69A9"/>
</linearGradient>
<linearGradient id="paint23_linear_1_3" x1="47.8304" y1="42.3945" x2="47.8304" y2="22.6684" gradientUnits="userSpaceOnUse">
<stop stop-color="#08142E"/>
<stop offset="0.809" stop-color="#17326E"/>
<stop offset="1" stop-color="#0D69A9"/>
</linearGradient>
<linearGradient id="paint24_linear_1_3" x1="55.0096" y1="53.4229" x2="48.5118" y2="20.5841" gradientUnits="userSpaceOnUse">
<stop stop-color="#B2B1B1"/>
<stop offset="0.35" stop-color="#DEDDDE"/>
<stop offset="0.65" stop-color="#DEDDDE"/>
<stop offset="1" stop-color="#B2B1B1"/>
</linearGradient>
<linearGradient id="paint25_linear_1_3" x1="85.4063" y1="36.0509" x2="78.9386" y2="3.36431" gradientUnits="userSpaceOnUse">
<stop stop-color="#B2B1B1"/>
<stop offset="0.35" stop-color="#DEDDDE"/>
<stop offset="0.65" stop-color="#DEDDDE"/>
<stop offset="1" stop-color="#B2B1B1"/>
</linearGradient>
<linearGradient id="paint26_linear_1_3" x1="66.004" y1="18.8256" x2="66.004" y2="47.111" gradientUnits="userSpaceOnUse">
<stop stop-color="white"/>
<stop offset="0.552" stop-color="white"/>
<stop offset="0.691" stop-color="#FAFAFA"/>
<stop offset="0.8" stop-color="#D3D2D2"/>
<stop offset="1" stop-color="#BDBCBC"/>
</linearGradient>
<linearGradient id="paint27_linear_1_3" x1="73.8404" y1="27.8824" x2="73.8404" y2="41.9102" gradientUnits="userSpaceOnUse">
<stop stop-color="white"/>
<stop offset="0.552" stop-color="white"/>
<stop offset="0.691" stop-color="#EFEEEE"/>
<stop offset="0.8" stop-color="#E9E9E9"/>
<stop offset="1" stop-color="#D3D2D2"/>
</linearGradient>
<linearGradient id="paint28_linear_1_3" x1="-31942.4" y1="22.5325" x2="-31942.4" y2="41.9917" gradientUnits="userSpaceOnUse">
<stop stop-color="white"/>
<stop offset="0.552" stop-color="white"/>
<stop offset="0.691" stop-color="#EFEEEE"/>
<stop offset="0.8" stop-color="#E9E9E9"/>
<stop offset="1" stop-color="#D3D2D2"/>
</linearGradient>
</defs>
</svg>
